<svg xmlns="http://www.w3.org/2000/svg" width="80" height="73.41" viewBox="0 0 80 73.41">
  <path id="graduation-cap" d="M73.522,15.8,48.943,4.094a17.42,17.42,0,0,0-17.61-.15L6.477,15.8c-.093.047-.19.1-.28.15a12.3,12.3,0,0,0,.28,21.516l6.857,3.267V57.069A16.69,16.69,0,0,0,25.064,73,51.855,51.855,0,0,0,40,75.036a51.858,51.858,0,0,0,14.936-2.023,16.69,16.69,0,0,0,11.73-15.926V40.73l6.667-3.187V65.036a3.333,3.333,0,1,0,6.666,0v-40C80.021,21.123,76.931,17.507,73.522,15.8ZM60,57.086a10,10,0,0,1-7,9.543,45.305,45.305,0,0,1-13,1.74,45.306,45.306,0,0,1-13-1.74,10,10,0,0,1-7-9.543V43.913L31.057,49.18a17.573,17.573,0,0,0,9.016,2.463,16.666,16.666,0,0,0,8.59-2.313L60,43.913ZM70.666,31.453l-25.139,12a10.98,10.98,0,0,1-11.3-.15L9.631,31.6a5.64,5.64,0,0,1-.123-9.86L34.49,9.811a11,11,0,0,1,11.3.15L70.369,21.67a5.759,5.759,0,0,1,2.963,4.967,5.666,5.666,0,0,1-2.666,4.816Z" transform="translate(0.001 -1.629)" fill="#fff"/>
</svg>
