<svg xmlns="http://www.w3.org/2000/svg" width="80" height="80" viewBox="0 0 80 80">
  <path id="briefcase" d="M63.333,13.333H59.667A16.7,16.7,0,0,0,43.333,0H36.667A16.7,16.7,0,0,0,20.333,13.333H16.667A16.687,16.687,0,0,0,0,30V63.333A16.687,16.687,0,0,0,16.667,80H63.333A16.687,16.687,0,0,0,80,63.333V30A16.687,16.687,0,0,0,63.333,13.333ZM36.667,6.667h6.667a10,10,0,0,1,9.387,6.667H27.28A10,10,0,0,1,36.667,6.667ZM16.667,20H63.333a10,10,0,0,1,10,10V40H6.667V30a10,10,0,0,1,10-10ZM63.333,73.333H16.667a10,10,0,0,1-10-10V46.667h30V50a3.333,3.333,0,0,0,6.667,0V46.667h30V63.333A10,10,0,0,1,63.333,73.333Z" fill="#fff"/>
</svg>
