<svg xmlns="http://www.w3.org/2000/svg" width="89.675" height="78.426" viewBox="0 0 89.675 78.426">
  <g id="_000000ff" data-name="#000000ff" transform="translate(0 -31.988)">
    <path id="Path_31271" data-name="Path 31271" d="M39.476,32.424a11.909,11.909,0,0,1,3.957-.434q18.829,0,37.658,0a8.529,8.529,0,0,1,5.515,1.869,8.366,8.366,0,0,1,3.069,6.065V71.82a8.616,8.616,0,0,1-2.7,5.458,8.269,8.269,0,0,1-3.237,1.814,12.831,12.831,0,0,1-3.862.363H68.189q5,13.632,10.008,27.258a2.7,2.7,0,0,1-.226,2.522,2.613,2.613,0,0,1-3.473.816,4.292,4.292,0,0,1-1.615-2.566c-3.412-9.337-6.885-18.653-10.262-28-.622-.039-1.245-.035-1.867-.028q-5.291,14.484-10.547,28.981a2.938,2.938,0,0,1-1.455,1.723,2.632,2.632,0,0,1-3.389-1.1,2.732,2.732,0,0,1-.114-2.359Q50.2,93.077,55.155,79.458q-4.713-.011-9.423,0A7.267,7.267,0,0,1,42.1,82.686a7.343,7.343,0,0,1-4.471.3,14.979,14.979,0,0,1-2.946-1.263c-2.3-1.151-4.606-2.308-6.913-3.456-.009,9.847.009,19.7-.009,29.542a2.655,2.655,0,0,1-2.708,2.6c-5.608,0-11.218.014-16.824-.007a2.636,2.636,0,0,1-2.59-2.569c-.023-4.911,0-9.824-.011-14.737A8.407,8.407,0,0,1,.7,88.564,9.436,9.436,0,0,1,0,85.656V76.417a22.1,22.1,0,0,1,.394-3.056A16.782,16.782,0,0,1,8.479,62.292a12.785,12.785,0,0,1-3.834-6.2A12.465,12.465,0,1,1,28.952,55.2a12.7,12.7,0,0,1-3.242,6.33c2.7,1.293,5.368,2.664,8.058,3.983q.005-11.775,0-23.548a13.1,13.1,0,0,1,.4-4.156,8.235,8.235,0,0,1,5.31-5.387m-.445,7.8c-.021,9.295.009,18.592-.014,27.887,1.166.617,2.357,1.182,3.536,1.774,1.844-3.673,3.675-7.354,5.519-11.027A2.663,2.663,0,0,1,49.9,57.386a2.63,2.63,0,0,1,2.883,1.328,2.7,2.7,0,0,1-.026,2.534q-3.237,6.473-6.477,12.945,17.5.021,34.992.005a3.025,3.025,0,0,0,3.144-2.974q.029-15.419.007-30.838a3.027,3.027,0,0,0-2.977-3.133q-19.7-.024-39.4,0a3.018,3.018,0,0,0-3.005,2.974m-23.35,5.559a7.192,7.192,0,1,0,4.652.914,7.121,7.121,0,0,0-4.652-.914M7.924,69.5a11.354,11.354,0,0,0-2.66,7.142c-.023,2.629,0,5.258-.011,7.887a8.353,8.353,0,0,0,.056,1.256A2.982,2.982,0,0,0,7.685,88.2a4.613,4.613,0,0,1,1.876.427,2.649,2.649,0,0,1,1.317,2.38c.007,4.717,0,9.433,0,14.15,3.878,0,7.754,0,11.631,0q0-15.477,0-30.955a2.673,2.673,0,0,1,2.151-2.759,3.539,3.539,0,0,1,2.368.576Q32.46,74.743,37.9,77.454a3.3,3.3,0,0,0,1.513.513,1.909,1.909,0,0,0,1.867-2.205A1.76,1.76,0,0,0,40.231,74.6q-7.54-3.749-15.078-7.5a15.986,15.986,0,0,0-3.265-1.335,19.983,19.983,0,0,0-5.417-.371A11.474,11.474,0,0,0,7.924,69.5Z" fill="#fff"/>
    <path id="Path_31272" data-name="Path 31272" d="M259.534,96.253c9.388-.032,18.777-.007,28.165-.012a2.628,2.628,0,0,1,1.335,4.951,4.578,4.578,0,0,1-2.226.3q-13.48-.005-26.958,0a2.625,2.625,0,1,1-.315-5.24Z" transform="translate(-212.029 -52.995)" fill="#fff"/>
    <path id="Path_31273" data-name="Path 31273" d="M339.163,152.643a4.448,4.448,0,0,1,1.506-.163c4.494.012,8.988-.011,13.483.01a2.62,2.62,0,0,1,.01,5.239c-4.669.019-9.34.007-14.01.007a2.625,2.625,0,0,1-.99-5.093Z" transform="translate(-278.321 -99.388)" fill="#fff"/>
    <path id="Path_31274" data-name="Path 31274" d="M339.171,208.88a5.858,5.858,0,0,1,1.858-.156q6.392,0,12.784,0a2.794,2.794,0,0,1,2.109.727,2.626,2.626,0,0,1,.443,3.244,2.678,2.678,0,0,1-2.38,1.284q-6.923,0-13.844,0a2.626,2.626,0,0,1-.97-5.1Z" transform="translate(-278.326 -145.779)" fill="#fff"/>
  </g>
</svg>
