<svg xmlns="http://www.w3.org/2000/svg" width="143" height="143" viewBox="0 0 143 143"><path d="M144.323,182.436l-23.466,13.918L50.448,216.141l-2.979-2.983-2.961-2.969,19.634-70.123,15.987-21.934L111.2,149.254Z" transform="translate(-32.019 -85.648)" fill="#ffc107"/><path d="M151.915,262.231l-23.466,13.918L58.04,295.936l-2.979-2.983,63.728-63.9Z" transform="translate(-39.611 -165.443)" fill="#ffc107"/><path d="M206.562,150.721l-35.365,9.94V147.829H149.512l-.2-21.932h-.075l-21.407.2,0-21.727H114.482l10.037-35.855L165.5,109.584Z" transform="translate(-83.022 -49.293)" fill="#ffd371"/><path d="M21.544,443.472a12.614,12.614,0,0,1-17.845,0l0,0a12.635,12.635,0,0,1,17.843-17.893l.01.01a12.667,12.667,0,0,1,0,17.887Z" transform="translate(0 -304.17)" fill="#fde56f"/><g transform="translate(61.274)"><path d="M236.712,0l-8.137,2.149a26.322,26.322,0,0,1-7.842,24.362l5.77,6.141A34.681,34.681,0,0,0,236.712,0Z" transform="translate(-220.734 0)" fill="#85c556"/><path d="M329.739,39.593h8.414V48.03h-8.414Z" transform="translate(-299.153 -28.484)" fill="#fde56f"/><path d="M454.42,133.687h8.414v8.437H454.42Z" transform="translate(-388.85 -96.176)" fill="#ffd371"/><path d="M439.426,275.359h8.414V283.8h-8.414Z" transform="translate(-378.063 -198.096)" fill="#ffd371"/><path d="M404.732,202.488c-13.2-4.517-23.811-2.144-30.39.643a36.892,36.892,0,0,0-11.447,7.431l6.046,5.868a29.238,29.238,0,0,1,9-5.663c7.52-3.087,15.618-3.185,24.07-.293Z" transform="translate(-323.006 -143.853)" fill="#85c556"/><path d="M347.317.3c-3.164,14-10.879,25.694-22.932,34.751a66.456,66.456,0,0,1-17.579,9.6l1.262,4.024,1.255,4.027A73.458,73.458,0,0,0,329.166,42c13.652-10.168,22.766-23.944,26.357-39.837Z" transform="translate(-282.655 -0.217)" fill="#ff6969"/></g><path d="M34.716,443.993a12.621,12.621,0,0,1-21.544,8.943l0,0L31.011,435.04l.01.01A12.579,12.579,0,0,1,34.716,443.993Z" transform="translate(-9.473 -313.635)" fill="#ffd371"/><path d="M295.665,256.01,260.3,265.95V253.119H238.615l-.2-21.932h-.076l16.269-16.314Z" transform="translate(-172.124 -155.013)" fill="#ffd371"/></svg>