<svg xmlns="http://www.w3.org/2000/svg" xmlns:xlink="http://www.w3.org/1999/xlink" width="154" height="65" viewBox="0 0 154 65"><defs><clipPath id="a"><path d="M6.187,19c42.974-26.34,56.972-5.973,69.052,14.392,13.22,22.3,24.144,44.588,68.262,5.627-38.34,23.717-48.067,4.9-58.905-13.907C77.386,12.6,69.681.092,52.746.09,41.836.088,27.1,5.278,6.187,19" transform="translate(-6.187 -0.09)" fill="none"/></clipPath><linearGradient id="b" x1="-5.586" y1="-2.678" x2="-5.585" y2="-2.678" gradientUnits="objectBoundingBox"><stop offset="0" stop-color="#cfd721"/><stop offset="1" stop-color="#53ae32"/></linearGradient><clipPath id="c"><path d="M50.246,24.5l-1.5,3.1a7.886,7.886,0,0,0-.353.895c-.093.258-.189.492-.258.68h-.048q0-.988-.069-1.692L47.685,24.5H45.993l.94,6.438-.165.282a2.411,2.411,0,0,1-.659.869,1.418,1.418,0,0,1-.869.282,4.091,4.091,0,0,1-.659-.069v1.363a2.757,2.757,0,0,0,.847.117,3.111,3.111,0,0,0,2.794-1.9L52.15,24.5Zm-39.686.422a3.7,3.7,0,0,0-1.222,1.551A5.652,5.652,0,0,0,8.915,28.7a2.415,2.415,0,0,0,.611,1.74,2.4,2.4,0,0,0,1.785.611,4.187,4.187,0,0,0,1.952-.446v-1.41c-.282.117-.542.234-.776.329a2.357,2.357,0,0,1-.823.141.935.935,0,0,1-.728-.282,1.256,1.256,0,0,1-.258-.847,4.258,4.258,0,0,1,.21-1.363A2.747,2.747,0,0,1,11.5,26.14a1.338,1.338,0,0,1,.892-.353,1.965,1.965,0,0,1,.682.1,6.4,6.4,0,0,1,.611.234l.539-1.315a4.167,4.167,0,0,0-1.9-.425,3.064,3.064,0,0,0-1.763.542m6.016,4.489a1.181,1.181,0,0,1-.212-.776,4.445,4.445,0,0,1,.212-1.341,3.255,3.255,0,0,1,.563-1.1,1.09,1.09,0,0,1,.752-.4.735.735,0,0,1,.589.26,1.079,1.079,0,0,1,.234.68,4.931,4.931,0,0,1-.234,1.5,2.957,2.957,0,0,1-.589,1.036,1.133,1.133,0,0,1-.776.4.635.635,0,0,1-.539-.258m-.446-4.465a4.107,4.107,0,0,0-1.1,1.6,6.338,6.338,0,0,0-.4,2.186,2.81,2.81,0,0,0,.47,1.716,1.589,1.589,0,0,0,1.339.611,2.262,2.262,0,0,0,1.833-.94h.024l-.072.823h1.317L20.923,24.5H19.582l-.327.821h-.048a1.862,1.862,0,0,0-.635-.7,1.83,1.83,0,0,0-.964-.236,2.241,2.241,0,0,0-1.479.566m15.062,1.15a1.348,1.348,0,0,1,.962-.47c.4,0,.587.189.587.566a.857.857,0,0,1-.492.752,2.835,2.835,0,0,1-1.386.282H30.6a2.2,2.2,0,0,1,.589-1.129m-.776-1.2a3.718,3.718,0,0,0-1.293,1.5,5.106,5.106,0,0,0-.47,2.162,2.492,2.492,0,0,0,.659,1.857,2.641,2.641,0,0,0,1.88.635,4.975,4.975,0,0,0,2.255-.494V29.266a8.093,8.093,0,0,1-.988.375,3.7,3.7,0,0,1-.916.117,1.154,1.154,0,0,1-.845-.305,1.13,1.13,0,0,1-.305-.845v-.1l.024-.141H30.7a5.186,5.186,0,0,0,2.749-.587,1.785,1.785,0,0,0,.964-1.644,1.59,1.59,0,0,0-.566-1.293,2.485,2.485,0,0,0-1.6-.47,3.262,3.262,0,0,0-1.833.518m11.631-.189a3.111,3.111,0,0,0-.916.988h-.048a1.413,1.413,0,0,0-1.5-1.317,2.44,2.44,0,0,0-2.045,1.317h-.048l.141-1.2H36.288l-1.363,6.438h1.74l.563-2.656a5.21,5.21,0,0,1,.682-1.833,1.173,1.173,0,0,1,.962-.659c.377,0,.566.236.566.706a2.571,2.571,0,0,1-.1.68l-.8,3.761h1.737l.566-2.68a5.609,5.609,0,0,1,.68-1.833,1.194,1.194,0,0,1,.964-.635c.375,0,.563.236.563.706a4.435,4.435,0,0,1-.093.68l-.8,3.761H43.9l.752-3.665a4.755,4.755,0,0,0,.141-1.036,2.13,2.13,0,0,0-.4-1.363,1.489,1.489,0,0,0-1.2-.494,2.195,2.195,0,0,0-1.15.329m-37.126.518c.236-.518.446-1.009.611-1.479v.21c0,.47.024.964.072,1.458l.141,2.019H3.816Zm-.234-2.749L.27,30.934H2.124l.988-2H5.837l.141,2H7.694l-.845-8.459Zm18.7,6.157A4.445,4.445,0,0,1,23.6,27.29a3.255,3.255,0,0,1,.563-1.1,1.047,1.047,0,0,1,.754-.4.687.687,0,0,1,.587.282,1.128,1.128,0,0,1,.21.73,4.682,4.682,0,0,1-.21,1.41,2.875,2.875,0,0,1-.587,1.057,1.008,1.008,0,0,1-.73.4c-.539,0-.8-.353-.8-1.033m3.338-6.674-.446,2.069a7,7,0,0,0-.141,1.126v.165h-.048a2.26,2.26,0,0,0-.659-.728,1.528,1.528,0,0,0-.821-.212,2.242,2.242,0,0,0-1.482.566,4.168,4.168,0,0,0-1.081,1.62,5.639,5.639,0,0,0-.422,2.162,2.662,2.662,0,0,0,.494,1.716,1.589,1.589,0,0,0,1.339.611,2.332,2.332,0,0,0,.988-.212,2.909,2.909,0,0,0,.845-.728h.024l-.072.823h1.317l1.9-8.977Z" transform="translate(-0.27 -21.957)" fill="none"/></clipPath><linearGradient id="d" x1="-15.43" y1="-45.047" x2="-15.425" y2="-45.047" xlink:href="#b"/></defs><g transform="translate(-80 -20)"><rect width="154" height="65" transform="translate(80 20)" fill="#fff" opacity="0"/><g transform="translate(81.013 19.91)"><path d="M50.165,8.034l-2.7,7.708H57.5L50.024,37.359a25.173,25.173,0,0,0,11.184.611l7.66-22.228h9.094l2.7-7.708Z" transform="translate(65.424 11.013)" fill="#fff"/><path d="M44.2,24.32,28.667,39.17H41.52L48.8,32.028c-1.549-2.491-3.078-5.1-4.6-7.708m14.967-2.279L74.226,8.015H61.209l-6.555,6.319c1.479,2.608,2.985,5.193,4.512,7.708" transform="translate(39.366 10.986)" fill="#fff"/><path d="M27.786,8.034,17.048,39.144H43.906l2.42-7.1H30.769L32.6,26.762H45.924l2.162-6.555H34.835l1.692-4.935H51.446l1.036-2.985c-1.012-1.479-2.069-2.89-3.15-4.252Z" transform="translate(23.259 11.013)" fill="#fff"/><path d="M12.521,8.015,1.619,39.171H11.91l5.616-18.4,4.088,18.4H32.963l10.9-31.156h-10.2L27.723,27l-3.9-18.985Z" transform="translate(1.869 10.986)" fill="#fff"/><g transform="translate(14.39 0.09)"><g clip-path="url(#a)"><rect width="145.26" height="161.66" transform="matrix(0.532, -0.847, 0.847, 0.532, -38.415, 53.78)" fill="url(#b)"/></g></g><g transform="translate(0.27 52.271)"><g clip-path="url(#c)"><rect width="51.881" height="11.819" transform="translate(-0.001 0)" fill="url(#d)"/></g></g></g></g></svg>